<svg width="31" height="21" viewBox="0 0 31 21" fill="none" xmlns="http://www.w3.org/2000/svg">
<path opacity="0.5" d="M5.72205e-05 5.55781C0.00078392 5.08718 0.139196 4.60989 0.445261 4.21646L2.90153 1.07359C3.31294 0.551192 3.93894 0.285209 4.56451 0.28418C4.93681 0.28418 5.31589 0.379602 5.65084 0.588488L8.04583 2.07855C8.29771 2.23918 8.72953 2.34943 9.14663 2.34659C9.47068 2.34798 9.78383 2.28313 9.9906 2.18099L12.3359 1.04495C12.7142 0.862826 13.1359 0.788172 13.56 0.787446C14.1691 0.790291 14.7858 0.939963 15.2815 1.28345L15.5552 1.47544C15.7739 1.36627 16.1082 1.19995 16.4869 1.01153C16.941 0.788898 17.4749 0.699108 18.0143 0.697352C18.5015 0.698744 18.9886 0.773823 19.4163 0.954495L21.0138 1.63613C21.2737 1.74887 21.6873 1.82249 22.098 1.82068C22.5088 1.82243 22.9216 1.74881 23.1816 1.63613L24.7805 0.954131C25.0722 0.829768 25.3839 0.776608 25.6929 0.776244C26.0487 0.776608 26.4023 0.846721 26.731 0.979864C27.0593 1.11373 27.364 1.31136 27.6067 1.58255L30.5178 4.84275C30.8405 5.20307 31.0007 5.65681 31.0001 6.10346C31.0007 6.63609 30.7728 7.17042 30.3333 7.5449L27.6177 9.86167L28.9059 11.2055C29.261 11.5761 29.4378 12.0566 29.4378 12.5317C29.4385 13.0372 29.2377 13.5476 28.84 13.9235L28.5787 14.1718C28.3325 14.4053 28.0366 14.5539 27.727 14.6332C27.8823 14.9188 27.9671 15.2321 27.9665 15.5459C27.9671 16.0517 27.7664 16.5618 27.3694 16.938L27.3701 16.9377L27.108 17.187C26.7349 17.5407 26.2512 17.7168 25.7747 17.7165C25.5186 17.7169 25.2622 17.6654 25.0212 17.5647C24.9367 17.9078 24.762 18.234 24.4872 18.4946L24.2251 18.744C23.852 19.0977 23.3692 19.2738 22.8919 19.2735C22.5188 19.2739 22.144 19.1639 21.8213 18.9505C21.7269 19.2541 21.5652 19.5419 21.319 19.7758L21.0569 20.0252C20.6846 20.3788 20.201 20.555 19.7244 20.5547C19.2168 20.555 18.7042 20.3556 18.3256 19.9604L17.1871 18.7715L15.6403 20.2031C15.27 20.5465 14.7948 20.7174 14.3257 20.7163C13.8103 20.7174 13.2904 20.511 12.911 20.1048L12.6641 19.8403C12.451 19.6113 12.3118 19.3404 12.2311 19.0576L11.632 19.6106C11.2611 19.9526 10.7865 20.1228 10.318 20.1224C9.80199 20.1228 9.28062 19.9163 8.90087 19.5099L8.65536 19.2456C8.37181 18.9427 8.21221 18.5675 8.16293 18.1843C8.00478 18.2248 7.84451 18.2523 7.68285 18.2523C7.16681 18.2523 6.6469 18.0462 6.26678 17.6401L6.02054 17.3759C5.67639 17.007 5.50516 16.534 5.50589 16.0676C5.50589 15.9228 5.52666 15.7788 5.55875 15.6364C5.13074 15.5797 4.71575 15.3888 4.40018 15.0499L4.15327 14.7854C3.80912 14.4165 3.63862 13.9435 3.63862 13.4767C3.63796 12.9632 3.84503 12.445 4.25366 12.0674L4.71545 11.6408L0.547523 7.03261C0.173344 6.61775 0.000722885 6.08372 5.72205e-05 5.55781ZM27.2453 13.6526C27.4661 13.652 27.6821 13.573 27.8508 13.4131L28.1126 13.1648C28.2937 12.9936 28.3831 12.7657 28.3838 12.5318C28.3831 12.3124 28.3046 12.0981 28.1429 11.9294L25.5045 9.17615C25.3326 8.99681 25.1032 8.90702 24.8679 8.90672C24.6478 8.90708 24.4325 8.98634 24.2624 9.14661L24.0017 9.39527C24.0017 9.39527 23.7319 9.79434 23.7312 10.0286C23.7319 10.204 23.7847 10.3749 23.8873 10.5228C23.896 10.5316 26.7349 13.4902 26.7349 13.4902C26.8857 13.5969 27.0639 13.6518 27.2453 13.6526ZM25.1382 16.3989C25.3097 16.5775 25.5387 16.6669 25.774 16.6676C25.9948 16.6673 26.2101 16.588 26.3795 16.4281L26.6416 16.179L26.6423 16.1786C26.8219 16.0081 26.9121 15.7796 26.9121 15.5456C26.9121 15.3262 26.8329 15.112 26.6719 14.9432C26.6719 14.9432 23.155 11.2823 23.1254 11.247C22.9573 11.0853 22.7407 11.0018 22.5171 11.0015C22.2963 11.0018 22.081 11.0807 21.9115 11.241L21.6494 11.4904C21.4691 11.6609 21.3796 11.8891 21.3789 12.1234C21.3796 12.3428 21.4588 12.5573 21.6199 12.7261L25.1382 16.3989ZM22.2557 17.9554C22.4269 18.1344 22.6558 18.224 22.8911 18.2246C23.112 18.2243 23.3273 18.145 23.4967 17.9848L23.7595 17.7357C23.9398 17.5648 24.03 17.3366 24.03 17.1026C24.03 16.9068 23.9634 16.7169 23.836 16.5588L21.3867 14.0024C21.2215 13.8534 21.0144 13.7749 20.7998 13.7749C20.579 13.7752 20.3637 13.8541 20.1943 14.0144L19.9315 14.2638C19.7518 14.4343 19.6616 14.6625 19.661 14.8964C19.6617 15.1163 19.7416 15.3308 19.9019 15.4991L22.2557 17.9554ZM17.6019 17.6856L19.0881 19.2367C19.2594 19.4156 19.4886 19.5051 19.7239 19.5058C19.9447 19.5055 20.16 19.4262 20.3295 19.2659L20.5916 19.0168C20.7712 18.8463 20.8614 18.6178 20.8621 18.3838C20.8614 18.164 20.7822 17.9495 20.6211 17.7814L19.1356 16.2304C18.9637 16.0515 18.7344 15.9616 18.4991 15.9613C18.2789 15.9616 18.0629 16.0405 17.8935 16.2012L17.6307 16.4503C17.4511 16.6208 17.3616 16.849 17.3608 17.0829C17.3617 17.3027 17.4409 17.5172 17.6019 17.6856ZM4.69105 13.4781C4.69135 13.6936 4.76855 13.9046 4.92494 14.0722L5.17119 14.3364C5.34308 14.5203 5.57631 14.6133 5.8151 14.6137C6.03174 14.6133 6.24384 14.5372 6.41216 14.3816L10.5617 10.5441L11.2793 11.3124L6.83768 15.4271C6.65271 15.5983 6.55977 15.8308 6.55837 16.0682C6.55977 16.2845 6.63624 16.4951 6.79227 16.6628L7.03778 16.9271C7.20968 17.1109 7.44291 17.2036 7.6817 17.2043C7.89834 17.2036 8.1111 17.1272 8.27809 16.9725L12.4288 13.1351L13.1456 13.9034L9.46202 17.3097C9.2845 17.4799 9.19356 17.7064 9.19356 17.9388C9.19356 18.1544 9.27003 18.3654 9.42606 18.5327L9.6723 18.7969C9.84353 18.9808 10.0774 19.0738 10.3169 19.0745C10.5342 19.0738 10.7463 18.9973 10.9139 18.8427L14.5901 15.4487H14.5908L14.5914 15.448L15.3069 16.2177L15.3061 16.2184L15.2924 16.2314L13.4512 17.9307C13.288 18.0983 13.2035 18.3132 13.2029 18.5355C13.2035 18.75 13.2793 18.9599 13.4353 19.1273L13.6816 19.3919C13.8535 19.5757 14.086 19.668 14.3241 19.6687C14.5408 19.6681 14.7529 19.592 14.9205 19.4367L16.5236 17.9522C16.3841 17.6786 16.3062 17.3816 16.3062 17.0836C16.3056 16.5781 16.5063 16.0684 16.9033 15.6918L17.1661 15.4425C17.5384 15.0891 18.0214 14.9127 18.498 14.9133C18.535 14.9133 18.5723 14.9218 18.6085 14.9239C18.6085 14.9152 18.6065 14.9059 18.6065 14.8972C18.6058 14.3917 19.2035 13.5047 19.2035 13.5047L19.4656 13.256C19.7443 12.9918 20.0842 12.827 20.4378 12.7608C20.3649 12.5544 20.3237 12.3395 20.3237 12.1242C20.3237 11.6187 20.5238 11.1086 20.9208 10.7325L21.1829 10.4831C21.556 10.1295 22.0388 9.95297 22.5154 9.95333C22.5711 9.95333 22.626 9.96459 22.6813 9.96956C22.6965 9.48416 22.892 8.99912 23.2724 8.63771V8.63735L23.5338 8.38904C23.9069 8.03503 24.3897 7.85853 24.8664 7.8589C25.3747 7.85853 25.8865 8.05791 26.2651 8.45316L26.8879 9.10307L29.6468 6.74998C29.8451 6.58021 29.9441 6.34559 29.9448 6.10467C29.9441 5.90281 29.8754 5.70518 29.7289 5.5411L26.8178 2.28096C26.7023 2.15132 26.5315 2.03404 26.3314 1.95261C26.1312 1.87123 25.9041 1.82655 25.6917 1.82685C25.5067 1.82685 25.3331 1.86034 25.1943 1.92022L23.5961 2.60216C23.1456 2.79203 22.6225 2.86989 22.0968 2.87159C21.5705 2.86983 21.0482 2.79197 20.5976 2.60216L19.0001 1.92052C18.7538 1.81311 18.3823 1.74651 18.0128 1.7479C17.6041 1.74542 17.1948 1.83 16.9574 1.95116C16.8067 2.02617 16.6636 2.09738 16.5309 2.16392L18.1601 3.30916C18.6836 3.67729 18.9657 4.26271 18.965 4.85347C18.9656 5.24448 18.8417 5.64252 18.5895 5.98031L18.5901 5.97958L18.3749 6.26875C17.9663 6.81198 17.3291 7.09128 16.6922 7.09268C16.3326 7.09268 15.9662 7.00179 15.6397 6.80593L14.6654 6.2208C14.4666 6.09928 14.1666 6.02251 13.8563 6.0239C13.4917 6.02178 13.1243 6.12962 12.9034 6.29194L10.2079 8.22442C9.608 8.65418 8.6309 9.45134 8.08942 9.95297L4.9695 12.8376C4.78477 13.0089 4.69178 13.2404 4.69105 13.4781ZM1.32979 6.33136L5.48609 10.9272L7.37315 9.18288C7.96421 8.63723 8.9389 7.84152 9.59268 7.37192L12.2874 5.43944C12.7443 5.11576 13.3037 4.97584 13.8568 4.97378C14.3274 4.97517 14.8015 5.07774 15.2108 5.32144L16.1844 5.90656C16.3338 5.99635 16.5099 6.04219 16.6928 6.04255C17.0197 6.04364 17.3469 5.89106 17.5293 5.6427L17.7439 5.35389L17.7446 5.35316C17.8587 5.19925 17.9119 5.02663 17.9127 4.8519C17.9113 4.58767 17.7894 4.33125 17.5533 4.16463L14.6726 2.14055C14.4235 1.96024 13.9803 1.83376 13.5594 1.8369C13.267 1.83551 12.9877 1.8943 12.7965 1.98876L10.4512 3.1248C10.0513 3.31679 9.60007 3.39532 9.14609 3.39641C8.56278 3.39356 7.97311 3.26678 7.48729 2.9684L5.09157 1.47804C4.93869 1.38262 4.75517 1.33328 4.56384 1.33328C4.24046 1.33261 3.91641 1.47913 3.73289 1.71829L1.27663 4.86116C1.13501 5.04117 1.05297 5.2951 1.05297 5.5583C1.05255 5.85262 1.15651 6.14221 1.32979 6.33136Z" fill="white"/>
</svg>
