<svg width="27" height="27" viewBox="0 0 27 27" fill="none" xmlns="http://www.w3.org/2000/svg">
<path opacity="0.5" d="M15.9488 7.67627H11.8124C11.4862 7.67627 11.2215 7.941 11.2215 8.26718V15.949H8.26693C7.94075 15.949 7.67603 16.2137 7.67603 16.5399C7.67603 16.8661 7.94075 17.1308 8.26693 17.1308H11.2215V18.9035C11.2215 19.2297 11.4862 19.4945 11.8124 19.4945C12.1386 19.4945 12.4033 19.2297 12.4033 18.9035V17.1308H15.3578C15.684 17.1308 15.9488 16.8661 15.9488 16.5399C15.9488 16.2137 15.684 15.949 15.3578 15.949H12.4033V14.7672H15.9488C17.9035 14.7672 19.4942 13.1765 19.4942 11.2217C19.4942 9.267 17.9035 7.67627 15.9488 7.67627ZM15.9488 13.5854H12.4033V8.85809H15.9488C17.2523 8.85809 18.3124 9.91818 18.3124 11.2217C18.3124 12.5253 17.2523 13.5854 15.9488 13.5854Z" fill="white"/>
<path opacity="0.5" d="M13.5854 0.584961C6.41772 0.584961 0.585449 6.41723 0.585449 13.585C0.585449 20.7527 6.41772 26.585 13.5854 26.585C20.7532 26.585 26.5854 20.7527 26.5854 13.585C26.5854 6.41723 20.7532 0.584961 13.5854 0.584961ZM13.5854 25.4031C7.0689 25.4031 1.76727 20.1015 1.76727 13.585C1.76727 7.06842 7.0689 1.76678 13.5854 1.76678C20.102 1.76678 25.4036 7.06842 25.4036 13.585C25.4036 20.1015 20.102 25.4031 13.5854 25.4031Z" fill="white"/>
</svg>
