<svg width="28" height="28" viewBox="0 0 28 28" fill="none" xmlns="http://www.w3.org/2000/svg">
<path d="M24.2232 10.0415H12.6116C11.1865 10.0415 10.0312 11.1981 10.0312 12.6248V24.2498C10.0312 25.6766 11.1865 26.8332 12.6116 26.8332H24.2232C25.6483 26.8332 26.8036 25.6766 26.8036 24.2498V12.6248C26.8036 11.1981 25.6483 10.0415 24.2232 10.0415Z" stroke="white" stroke-width="2" stroke-linecap="round" stroke-linejoin="round"/>
<path d="M4.87053 17.7917H3.58035C2.896 17.7917 2.23968 17.5195 1.75577 17.035C1.27186 16.5506 1 15.8935 1 15.2083V3.58333C1 2.89819 1.27186 2.24111 1.75577 1.75664C2.23968 1.27217 2.896 1 3.58035 1H15.1919C15.8763 1 16.5326 1.27217 17.0165 1.75664C17.5004 2.24111 17.7723 2.89819 17.7723 3.58333V4.875" stroke="white" stroke-width="2" stroke-linecap="round" stroke-linejoin="round"/>
</svg>
