<svg width="22" height="22" viewBox="0 0 22 22" fill="none" xmlns="http://www.w3.org/2000/svg">
<path d="M19.0436 6.20515H2.95689C2.78285 6.19203 2.6104 6.24305 2.47999 6.34616C2.35178 6.45543 2.29239 6.6136 2.32105 6.76924L3.9742 19.5459C4.16808 20.9545 5.52203 22.0101 7.12157 21.9997H15.1331C16.7777 22.0205 18.163 20.9144 18.3123 19.4613L19.6793 6.71283C19.6878 6.57608 19.63 6.44263 19.5204 6.34616C19.3901 6.24305 19.2176 6.19203 19.0436 6.20515ZM17.0407 19.4049C16.9408 20.2637 16.1056 20.9058 15.1332 20.8715H7.12163C6.16663 20.9059 5.34574 20.2764 5.24588 19.4331L3.65631 7.33333H18.3441L17.0407 19.4049Z" fill="white" fill-opacity="0.5"/>
<path d="M21.3642 2.53872H14.815V1.63614C14.8503 0.764383 14.0823 0.0323432 13.0997 0.00103178C13.0675 6.06319e-06 13.0352 -0.000263863 13.0029 0.000275989H8.9971C8.01398 -0.0158656 7.20234 0.678061 7.18414 1.55025C7.18354 1.57886 7.18384 1.60753 7.185 1.63614V2.53866H0.635839C0.284664 2.53866 0 2.79121 0 3.10275C0 3.4143 0.284664 3.66685 0.635839 3.66685H21.3642C21.7153 3.66685 22 3.4143 22 3.10275C22 2.79121 21.7153 2.53872 21.3642 2.53872ZM13.5433 1.63614V2.53866H8.45661V1.63614C8.42077 1.38894 8.61763 1.16279 8.89627 1.131C8.92967 1.12716 8.96345 1.12635 8.99704 1.12846H13.0028C13.2831 1.11086 13.5263 1.29808 13.5462 1.54674C13.5486 1.57654 13.5476 1.6065 13.5433 1.63614Z" fill="white" fill-opacity="0.5"/>
</svg>
